<?xml version="1.0" encoding="UTF-8" standalone="no"?>
<!-- Generated by graphviz version 2.38.0 (20140413.2041)
 -->

<!-- Title: %3 Pages: 1 -->

<svg
   width="600"
   height="500"
   viewBox="0 0 450 374.99998"
   version="1.1"
   id="svg168"
   sodipodi:docname="Cloud.svg"
   inkscape:version="1.1 (c68e22c387, 2021-05-23)"
   xmlns:inkscape="http://www.inkscape.org/namespaces/inkscape"
   xmlns:sodipodi="http://sodipodi.sourceforge.net/DTD/sodipodi-0.dtd"
   xmlns="http://www.w3.org/2000/svg"
   xmlns:svg="http://www.w3.org/2000/svg"
   xmlns:rdf="http://www.w3.org/1999/02/22-rdf-syntax-ns#"
   xmlns:cc="http://creativecommons.org/ns#"
   xmlns:dc="http://purl.org/dc/elements/1.1/">
  <metadata
     id="metadata174">
    <rdf:RDF>
      <cc:Work
         rdf:about="">
        <dc:format>image/svg+xml</dc:format>
        <dc:type
           rdf:resource="http://purl.org/dc/dcmitype/StillImage" />
      </cc:Work>
    </rdf:RDF>
  </metadata>
  <defs
     id="defs172">
    <marker
       style="overflow:visible"
       id="Arrow2Lstart"
       refX="0"
       refY="0"
       orient="auto"
       inkscape:stockid="Arrow2Lstart"
       inkscape:isstock="true">
      <path
         transform="matrix(1.1,0,0,1.1,1.1,0)"
         d="M 8.7185878,4.0337352 -2.2072895,0.01601326 8.7185884,-4.0017078 c -1.7454984,2.3720609 -1.7354408,5.6174519 -6e-7,8.035443 z"
         style="fill:context-stroke;fill-rule:evenodd;stroke-width:0.625;stroke-linejoin:round"
         id="path4611" />
    </marker>
    <marker
       style="overflow:visible"
       id="marker4865"
       refX="0"
       refY="0"
       orient="auto"
       inkscape:stockid="Arrow2Lend"
       inkscape:isstock="true">
      <path
         transform="matrix(-1.1,0,0,-1.1,-1.1,0)"
         d="M 8.7185878,4.0337352 -2.2072895,0.01601326 8.7185884,-4.0017078 c -1.7454984,2.3720609 -1.7354408,5.6174519 -6e-7,8.035443 z"
         style="fill:context-stroke;fill-rule:evenodd;stroke-width:0.625;stroke-linejoin:round"
         id="path4863" />
    </marker>
    <marker
       style="overflow:visible"
       id="Arrow2Lend"
       refX="0"
       refY="0"
       orient="auto"
       inkscape:stockid="Arrow2Lend"
       inkscape:isstock="true">
      <path
         transform="matrix(-1.1,0,0,-1.1,-1.1,0)"
         d="M 8.7185878,4.0337352 -2.2072895,0.01601326 8.7185884,-4.0017078 c -1.7454984,2.3720609 -1.7354408,5.6174519 -6e-7,8.035443 z"
         style="fill:context-stroke;fill-rule:evenodd;stroke-width:0.625;stroke-linejoin:round"
         id="path4614" />
    </marker>
    <marker
       inkscape:stockid="DotM"
       orient="auto"
       refY="0"
       refX="0"
       id="marker11678"
       style="overflow:visible"
       inkscape:isstock="true">
      <path
         id="path11676"
         d="m -2.5,-1 c 0,2.76 -2.24,5 -5,5 -2.76,0 -5,-2.24 -5,-5 0,-2.76 2.24,-5 5,-5 2.76,0 5,2.24 5,5 z"
         style="fill:#000000;fill-opacity:1;fill-rule:evenodd;stroke:#000000;stroke-width:1pt;stroke-opacity:1"
         transform="matrix(0.4,0,0,0.4,2.96,0.4)"
         inkscape:connector-curvature="0" />
    </marker>
    <marker
       inkscape:isstock="true"
       style="overflow:visible"
       id="marker10198"
       refX="0"
       refY="0"
       orient="auto"
       inkscape:stockid="SquareM">
      <path
         transform="scale(0.4)"
         style="fill:#000000;fill-opacity:1;fill-rule:evenodd;stroke:#000000;stroke-width:1pt;stroke-opacity:1"
         d="M -5,-5 V 5 H 5 V -5 Z"
         id="path10196"
         inkscape:connector-curvature="0" />
    </marker>
    <marker
       inkscape:stockid="SquareM"
       orient="auto"
       refY="0"
       refX="0"
       id="marker9894"
       style="overflow:visible"
       inkscape:isstock="true"
       inkscape:collect="always">
      <path
         id="path9892"
         d="M -5,-5 V 5 H 5 V -5 Z"
         style="fill:#000000;fill-opacity:1;fill-rule:evenodd;stroke:#000000;stroke-width:1pt;stroke-opacity:1"
         transform="scale(0.4)"
         inkscape:connector-curvature="0" />
    </marker>
    <marker
       inkscape:isstock="true"
       style="overflow:visible"
       id="marker9354"
       refX="0"
       refY="0"
       orient="auto"
       inkscape:stockid="DotM"
       inkscape:collect="always">
      <path
         transform="matrix(0.4,0,0,0.4,2.96,0.4)"
         style="fill:#000000;fill-opacity:1;fill-rule:evenodd;stroke:#000000;stroke-width:1pt;stroke-opacity:1"
         d="m -2.5,-1 c 0,2.76 -2.24,5 -5,5 -2.76,0 -5,-2.24 -5,-5 0,-2.76 2.24,-5 5,-5 2.76,0 5,2.24 5,5 z"
         id="path9352"
         inkscape:connector-curvature="0" />
    </marker>
    <marker
       inkscape:stockid="DotM"
       orient="auto"
       refY="0"
       refX="0"
       id="marker7438"
       style="overflow:visible"
       inkscape:isstock="true"
       inkscape:collect="always">
      <path
         id="path7436"
         d="m -2.5,-1 c 0,2.76 -2.24,5 -5,5 -2.76,0 -5,-2.24 -5,-5 0,-2.76 2.24,-5 5,-5 2.76,0 5,2.24 5,5 z"
         style="fill:#000000;fill-opacity:1;fill-rule:evenodd;stroke:#000000;stroke-width:1pt;stroke-opacity:1"
         transform="matrix(0.4,0,0,0.4,2.96,0.4)"
         inkscape:connector-curvature="0" />
    </marker>
    <marker
       inkscape:stockid="DotM"
       orient="auto"
       refY="0"
       refX="0"
       id="marker7296"
       style="overflow:visible"
       inkscape:isstock="true">
      <path
         id="path7294"
         d="m -2.5,-1 c 0,2.76 -2.24,5 -5,5 -2.76,0 -5,-2.24 -5,-5 0,-2.76 2.24,-5 5,-5 2.76,0 5,2.24 5,5 z"
         style="fill:#000000;fill-opacity:1;fill-rule:evenodd;stroke:#000000;stroke-width:1pt;stroke-opacity:1"
         transform="matrix(0.4,0,0,0.4,2.96,0.4)"
         inkscape:connector-curvature="0" />
    </marker>
    <marker
       inkscape:isstock="true"
       style="overflow:visible"
       id="marker7098"
       refX="0"
       refY="0"
       orient="auto"
       inkscape:stockid="DotM"
       inkscape:collect="always">
      <path
         transform="matrix(0.4,0,0,0.4,2.96,0.4)"
         style="fill:#000000;fill-opacity:1;fill-rule:evenodd;stroke:#000000;stroke-width:1pt;stroke-opacity:1"
         d="m -2.5,-1 c 0,2.76 -2.24,5 -5,5 -2.76,0 -5,-2.24 -5,-5 0,-2.76 2.24,-5 5,-5 2.76,0 5,2.24 5,5 z"
         id="path7096"
         inkscape:connector-curvature="0" />
    </marker>
    <marker
       inkscape:isstock="true"
       style="overflow:visible"
       id="marker6944"
       refX="0"
       refY="0"
       orient="auto"
       inkscape:stockid="DotM">
      <path
         transform="matrix(0.4,0,0,0.4,2.96,0.4)"
         style="fill:#000000;fill-opacity:1;fill-rule:evenodd;stroke:#000000;stroke-width:1pt;stroke-opacity:1"
         d="m -2.5,-1 c 0,2.76 -2.24,5 -5,5 -2.76,0 -5,-2.24 -5,-5 0,-2.76 2.24,-5 5,-5 2.76,0 5,2.24 5,5 z"
         id="path6942"
         inkscape:connector-curvature="0" />
    </marker>
    <marker
       inkscape:stockid="DotM"
       orient="auto"
       refY="0"
       refX="0"
       id="marker6796"
       style="overflow:visible"
       inkscape:isstock="true"
       inkscape:collect="always">
      <path
         id="path6794"
         d="m -2.5,-1 c 0,2.76 -2.24,5 -5,5 -2.76,0 -5,-2.24 -5,-5 0,-2.76 2.24,-5 5,-5 2.76,0 5,2.24 5,5 z"
         style="fill:#000000;fill-opacity:1;fill-rule:evenodd;stroke:#000000;stroke-width:1pt;stroke-opacity:1"
         transform="matrix(0.4,0,0,0.4,2.96,0.4)"
         inkscape:connector-curvature="0" />
    </marker>
    <marker
       inkscape:isstock="true"
       style="overflow:visible"
       id="marker6654"
       refX="0"
       refY="0"
       orient="auto"
       inkscape:stockid="DotM"
       inkscape:collect="always">
      <path
         transform="matrix(0.4,0,0,0.4,2.96,0.4)"
         style="fill:#000000;fill-opacity:1;fill-rule:evenodd;stroke:#000000;stroke-width:1pt;stroke-opacity:1"
         d="m -2.5,-1 c 0,2.76 -2.24,5 -5,5 -2.76,0 -5,-2.24 -5,-5 0,-2.76 2.24,-5 5,-5 2.76,0 5,2.24 5,5 z"
         id="path6652"
         inkscape:connector-curvature="0" />
    </marker>
    <marker
       inkscape:isstock="true"
       style="overflow:visible"
       id="marker6152"
       refX="0"
       refY="0"
       orient="auto"
       inkscape:stockid="Arrow1Lend">
      <path
         transform="matrix(-0.8,0,0,-0.8,-10,0)"
         style="fill:#000000;fill-opacity:1;fill-rule:evenodd;stroke:#000000;stroke-width:1pt;stroke-opacity:1"
         d="M 0,0 5,-5 -12.5,0 5,5 Z"
         id="path6150"
         inkscape:connector-curvature="0" />
    </marker>
    <marker
       inkscape:stockid="DotL"
       orient="auto"
       refY="0"
       refX="0"
       id="marker6058"
       style="overflow:visible"
       inkscape:isstock="true"
       inkscape:collect="always">
      <path
         id="path6056"
         d="m -2.5,-1 c 0,2.76 -2.24,5 -5,5 -2.76,0 -5,-2.24 -5,-5 0,-2.76 2.24,-5 5,-5 2.76,0 5,2.24 5,5 z"
         style="fill:#000000;fill-opacity:1;fill-rule:evenodd;stroke:#000000;stroke-width:1pt;stroke-opacity:1"
         transform="matrix(0.8,0,0,0.8,5.92,0.8)"
         inkscape:connector-curvature="0" />
    </marker>
    <marker
       inkscape:isstock="true"
       style="overflow:visible"
       id="marker5958"
       refX="0"
       refY="0"
       orient="auto"
       inkscape:stockid="Arrow1Lend">
      <path
         transform="matrix(-0.8,0,0,-0.8,-10,0)"
         style="fill:#000000;fill-opacity:1;fill-rule:evenodd;stroke:#000000;stroke-width:1pt;stroke-opacity:1"
         d="M 0,0 5,-5 -12.5,0 5,5 Z"
         id="path5956"
         inkscape:connector-curvature="0" />
    </marker>
    <marker
       inkscape:stockid="DotM"
       orient="auto"
       refY="0"
       refX="0"
       id="DotM"
       style="overflow:visible"
       inkscape:isstock="true">
      <path
         id="path4751"
         d="m -2.5,-1 c 0,2.76 -2.24,5 -5,5 -2.76,0 -5,-2.24 -5,-5 0,-2.76 2.24,-5 5,-5 2.76,0 5,2.24 5,5 z"
         style="fill:#000000;fill-opacity:1;fill-rule:evenodd;stroke:#000000;stroke-width:1pt;stroke-opacity:1"
         transform="matrix(0.4,0,0,0.4,2.96,0.4)"
         inkscape:connector-curvature="0" />
    </marker>
    <marker
       inkscape:isstock="true"
       style="overflow:visible"
       id="marker5568"
       refX="0"
       refY="0"
       orient="auto"
       inkscape:stockid="DotL"
       inkscape:collect="always">
      <path
         transform="matrix(0.8,0,0,0.8,5.92,0.8)"
         style="fill:#000000;fill-opacity:1;fill-rule:evenodd;stroke:#000000;stroke-width:1pt;stroke-opacity:1"
         d="m -2.5,-1 c 0,2.76 -2.24,5 -5,5 -2.76,0 -5,-2.24 -5,-5 0,-2.76 2.24,-5 5,-5 2.76,0 5,2.24 5,5 z"
         id="path5566"
         inkscape:connector-curvature="0" />
    </marker>
    <marker
       inkscape:stockid="Arrow1Lend"
       orient="auto"
       refY="0"
       refX="0"
       id="marker5374"
       style="overflow:visible"
       inkscape:isstock="true">
      <path
         id="path5372"
         d="M 0,0 5,-5 -12.5,0 5,5 Z"
         style="fill:#000000;fill-opacity:1;fill-rule:evenodd;stroke:#000000;stroke-width:1pt;stroke-opacity:1"
         transform="matrix(-0.8,0,0,-0.8,-10,0)"
         inkscape:connector-curvature="0" />
    </marker>
  </defs>
  <sodipodi:namedview
     pagecolor="#ffffff"
     bordercolor="#666666"
     borderopacity="1"
     objecttolerance="10"
     gridtolerance="10"
     guidetolerance="10"
     inkscape:pageopacity="0"
     inkscape:pageshadow="2"
     inkscape:window-width="1920"
     inkscape:window-height="1000"
     id="namedview170"
     showgrid="false"
     inkscape:zoom="0.6363961"
     inkscape:cx="92.709556"
     inkscape:cy="465.11913"
     inkscape:window-x="-11"
     inkscape:window-y="-11"
     inkscape:window-maximized="1"
     inkscape:current-layer="svg168"
     fit-margin-top="0"
     fit-margin-left="0"
     fit-margin-right="0"
     fit-margin-bottom="0"
     inkscape:pagecheckerboard="0"
     inkscape:document-units="pt"
     units="px"
     height="500px" />
  <g
     id="graph0"
     class="graph"
     transform="translate(4.8748253,458.33279)"
     inkscape:label="MainGraph">
    <title
       id="title2">%3</title>
    <!-- CloudUtils -->
    <!-- CloudStore -->
    <!-- CloudUtils&#45;&gt;CloudStore -->
    <!-- CloudTransaction -->
    <!-- CloudUtils&#45;&gt;CloudTransaction -->
    <!-- CloudJson -->
    <!-- CloudJson&#45;&gt;CloudStore -->
    <!-- CloudJson&#45;&gt;CloudTransaction -->
    <!-- CloudReflection -->
    <!-- CloudMobile -->
    <!-- CloudReflection&#45;&gt;CloudMobile -->
    <!-- CloudWeb -->
    <!-- CloudReflection&#45;&gt;CloudWeb -->
    <!-- CloudCli -->
    <!-- CloudReflection&#45;&gt;CloudCli -->
    <!-- CloudReflection&#45;&gt;CloudTransaction -->
    <!-- CloudTransaction&#45;&gt;CloudReflection -->
    <!-- CloudGenerator -->
    <g
       id="g4025"
       inkscape:label="AllObjects"
       transform="matrix(0.76456349,0,0,0.76456349,3.368895,-99.889551)">
      <g
         id="g657"
         inkscape:label="Rects"
         style="stroke:#808080;stroke-width:1.30794;stroke-miterlimit:4;stroke-dasharray:none;stroke-opacity:1">
        <polygon
           id="polygon29"
           points="110,-83 110,-8 8,-8 8,-83 "
           style="fill:none;stroke:#808080;stroke-width:1.30794;stroke-miterlimit:4;stroke-dasharray:none;stroke-opacity:1"
           transform="translate(29.282491,-330.6011)" />
        <polygon
           id="polygon50"
           points="16.5,-16 101.5,-16 101.5,-52 16.5,-52 "
           style="fill:none;stroke:#808080;stroke-width:1.30794;stroke-miterlimit:4;stroke-dasharray:none;stroke-opacity:1"
           transform="translate(29.282491,-330.6011)" />
        <polygon
           style="fill:none;stroke:#808080;stroke-width:1.30794;stroke-miterlimit:4;stroke-dasharray:none;stroke-opacity:1"
           points="256,-8 118,-8 118,-83 256,-83 "
           id="polygon36"
           transform="translate(10.662998,-206.23491)" />
        <polygon
           style="fill:none;stroke:#808080;stroke-width:1.30794;stroke-miterlimit:4;stroke-dasharray:none;stroke-opacity:1"
           points="247.5,-16 247.5,-52 126.5,-52 126.5,-16 "
           id="polygon64"
           transform="translate(10.662998,-206.23491)" />
        <polygon
           style="fill:none;stroke:#808080;stroke-width:1.30794;stroke-miterlimit:4;stroke-dasharray:none;stroke-opacity:1"
           points="20,-241 214,-241 214,-166 20,-166 "
           id="polygon22"
           transform="translate(-5.3158557,142.73326)" />
        <polygon
           style="fill:none;stroke:#808080;stroke-width:1.30794;stroke-miterlimit:4;stroke-dasharray:none;stroke-opacity:1"
           points="28,-210 28,-174 108,-174 108,-210 "
           id="polygon43"
           transform="translate(-5.3158557,142.73326)" />
        <polygon
           style="fill:none;stroke:#808080;stroke-width:1.30794;stroke-miterlimit:4;stroke-dasharray:none;stroke-opacity:1"
           points="126,-210 126,-174 206,-174 206,-210 "
           id="polygon78"
           transform="translate(-5.3158557,142.73326)" />
        <polygon
           style="fill:none;stroke:#808080;stroke-width:1.30794;stroke-miterlimit:4;stroke-dasharray:none;stroke-opacity:1"
           points="291,-241 417,-241 417,-166 291,-166 "
           id="polygon15"
           transform="translate(17.7306,-48.23491)" />
        <polygon
           style="fill:none;stroke:#808080;stroke-width:1.30794;stroke-miterlimit:4;stroke-dasharray:none;stroke-opacity:1"
           points="299,-210 299,-174 409,-174 409,-210 "
           id="polygon162"
           transform="translate(17.7306,-48.23491)" />
        <polygon
           id="polygon8"
           points="478,-158 478,-8 264,-8 264,-158 "
           style="fill:none;stroke:#808080;stroke-width:1.30794;stroke-miterlimit:4;stroke-dasharray:none;stroke-opacity:1"
           transform="translate(45.000001,-31.500001)" />
        <polygon
           id="polygon106"
           points="416,-16 470,-16 470,-52 416,-52 "
           style="fill:none;stroke:#808080;stroke-width:1.30794;stroke-miterlimit:4;stroke-dasharray:none;stroke-opacity:1"
           transform="translate(45.000001,-31.500001)" />
        <polygon
           id="polygon120"
           points="272,-16 326,-16 326,-52 272,-52 "
           style="fill:none;stroke:#808080;stroke-width:1.30794;stroke-miterlimit:4;stroke-dasharray:none;stroke-opacity:1"
           transform="translate(45.000001,-31.500001)" />
        <polygon
           id="polygon134"
           points="344,-16 398,-16 398,-52 344,-52 "
           style="fill:none;stroke:#808080;stroke-width:1.30794;stroke-miterlimit:4;stroke-dasharray:none;stroke-opacity:1"
           transform="translate(45.000001,-31.500001)" />
        <polygon
           style="fill:none;stroke:#808080;stroke-width:1.30794;stroke-miterlimit:4;stroke-dasharray:none;stroke-opacity:1"
           points="420,-127 288,-127 288,-91 420,-91 "
           id="polygon99"
           transform="translate(115.20978,-253.72365)" />
        <polygon
           id="polygon15-2"
           points="417,-166 291,-166 291,-241 417,-241 "
           style="fill:none;stroke:#808080;stroke-width:1.02615;stroke-miterlimit:4;stroke-dasharray:none;stroke-opacity:1"
           transform="matrix(1.2746063,0,0,1.2746063,20.811649,-116.71872)" />
      </g>
      <g
         id="g539"
         inkscape:label="Links"
         style="display:inline">
        <path
           inkscape:connector-curvature="0"
           id="path5109"
           d="M 516.26003,-325.41321 V -189.348"
           style="fill:none;stroke:#000000;stroke-width:0.980952;stroke-linecap:butt;stroke-linejoin:miter;stroke-miterlimit:4;stroke-dasharray:none;stroke-opacity:1;marker-start:url(#Arrow2Lstart);marker-end:url(#marker9354)"
           sodipodi:nodetypes="cc" />
        <path
           sodipodi:nodetypes="cc"
           style="fill:none;stroke:#000000;stroke-width:0.980952;stroke-linecap:butt;stroke-linejoin:miter;stroke-miterlimit:4;stroke-dasharray:none;stroke-opacity:1;marker-start:url(#marker6796);marker-end:url(#marker6944)"
           d="M 416,-106.91844 V -83.6171"
           id="path5119"
           inkscape:connector-curvature="0" />
        <path
           id="path5115"
           style="fill:none;stroke:#000000;stroke-width:0.980952;stroke-linecap:butt;stroke-linejoin:miter;stroke-miterlimit:4;stroke-dasharray:none;stroke-opacity:1;marker-start:url(#marker7098);marker-end:url(#marker6058)"
           d="m 344,-83.71084 v -23.28242 h 0.0322 54.40714 17.65662"
           inkscape:connector-curvature="0"
           sodipodi:nodetypes="ccccc" />
        <path
           sodipodi:nodetypes="ccccc"
           inkscape:connector-curvature="0"
           d="m 488,-83.66397 v -23.32929 h -0.0322 -54.40714 -17.65662"
           style="fill:none;stroke:#000000;stroke-width:0.980952;stroke-linecap:butt;stroke-linejoin:miter;stroke-miterlimit:4;stroke-dasharray:none;stroke-opacity:1;marker-start:url(#marker6654);marker-end:url(#marker5568)"
           id="path5122" />
        <path
           sodipodi:nodetypes="cc"
           inkscape:connector-curvature="0"
           id="path5246"
           d="m 421.30655,-328.19987 -0.39773,36.19503"
           style="fill:none;stroke:#000000;stroke-width:0.980952;stroke-linecap:butt;stroke-linejoin:miter;stroke-miterlimit:4;stroke-dasharray:none;stroke-opacity:1;marker-start:url(#DotM);marker-end:url(#marker4865)" />
        <path
           sodipodi:nodetypes="cc"
           inkscape:connector-curvature="0"
           id="path5248"
           d="M 416.09596,-106.99326 V -214.43753"
           style="fill:none;stroke:#000000;stroke-width:0.980952;stroke-linecap:butt;stroke-linejoin:miter;stroke-miterlimit:4;stroke-dasharray:none;stroke-opacity:1;marker-end:url(#marker11678)" />
        <path
           sodipodi:nodetypes="cc"
           inkscape:connector-curvature="0"
           id="path5250"
           d="M 308.57583,-275.00003 H 266.75"
           style="fill:none;stroke:#000000;stroke-width:0.980952;stroke-linecap:butt;stroke-linejoin:miter;stroke-miterlimit:4;stroke-dasharray:none;stroke-opacity:1;marker-start:url(#marker7438)" />
        <path
           sodipodi:nodetypes="ccc"
           inkscape:connector-curvature="0"
           id="path5252"
           d="M 128.9375,-274.25003 H 115.625 v -62.04917"
           style="fill:none;stroke:#000000;stroke-width:0.980952;stroke-linecap:butt;stroke-linejoin:miter;stroke-miterlimit:4;stroke-dasharray:none;stroke-opacity:1;marker-end:url(#marker6152)" />
        <path
           sodipodi:nodetypes="ccc"
           inkscape:connector-curvature="0"
           id="path5254"
           d="m 59.375001,-338.37503 v 97.875 H 128.375"
           style="fill:none;stroke:#000000;stroke-width:0.980952;stroke-linecap:butt;stroke-linejoin:miter;stroke-miterlimit:4;stroke-dasharray:none;stroke-opacity:1;marker-start:url(#marker7296)" />
        <path
           sodipodi:nodetypes="cc"
           inkscape:connector-curvature="0"
           id="path5256"
           d="M 266.84375,-239.75003 H 307.25"
           style="fill:none;stroke:#000000;stroke-width:0.980952;stroke-linecap:butt;stroke-linejoin:miter;stroke-miterlimit:4;stroke-dasharray:none;stroke-opacity:1;marker-end:url(#Arrow2Lend)" />
        <path
           sodipodi:nodetypes="cc"
           inkscape:connector-curvature="0"
           id="path5262"
           d="m 193.25,-99.37549 v -112.5"
           style="fill:none;stroke:#000000;stroke-width:0.980952;stroke-linecap:butt;stroke-linejoin:miter;stroke-miterlimit:4;stroke-dasharray:none;stroke-opacity:1;marker-start:url(#marker10198);marker-end:url(#marker10198)" />
        <path
           sodipodi:nodetypes="ccc"
           inkscape:connector-curvature="0"
           id="path5264"
           d="m 26.750001,-100.62503 v -254.625 h 8.109375"
           style="fill:none;stroke:#000000;stroke-width:0.980952;stroke-linecap:butt;stroke-linejoin:miter;stroke-miterlimit:4;stroke-dasharray:none;stroke-opacity:1;marker-start:url(#marker9894);marker-end:url(#marker9894)" />
      </g>
      <g
         id="g425"
         inkscape:label="Text"
         style="display:inline">
        <text
           style="font-style:normal;font-variant:normal;font-weight:normal;font-stretch:normal;font-size:14px;font-family:'Segoe UI';-inkscape-font-specification:'Segoe UI';text-anchor:middle"
           id="text31"
           font-size="14.00"
           y="-398.40109"
           x="88.282494">Store</text>
        <text
           style="font-style:normal;font-variant:normal;font-weight:normal;font-stretch:normal;font-size:14px;font-family:'Segoe UI';-inkscape-font-specification:'Segoe UI';text-anchor:middle"
           id="text52"
           font-size="14.00"
           y="-360.90109"
           x="88.282494">Cloud.Store</text>
        <text
           x="197.66299"
           y="-274.03491"
           font-size="14.00"
           id="text38"
           style="font-style:normal;font-variant:normal;font-weight:normal;font-stretch:normal;font-size:14px;font-family:'Segoe UI';-inkscape-font-specification:'Segoe UI';text-anchor:middle">Transaction</text>
        <text
           x="197.66299"
           y="-236.53491"
           font-size="14.00"
           id="text66"
           style="font-style:normal;font-variant:normal;font-weight:normal;font-stretch:normal;font-size:14px;font-family:'Segoe UI';-inkscape-font-specification:'Segoe UI';text-anchor:middle">Cloud.Transaction</text>
        <text
           x="111.68414"
           y="-83.066742"
           font-size="14.00"
           id="text24"
           style="font-style:normal;font-variant:normal;font-weight:normal;font-stretch:normal;font-size:14px;font-family:'Segoe UI';-inkscape-font-specification:'Segoe UI';text-anchor:middle">Common</text>
        <text
           x="62.684143"
           y="-45.566742"
           font-size="14.00"
           id="text45"
           style="font-style:normal;font-variant:normal;font-weight:normal;font-stretch:normal;font-size:14px;font-family:'Segoe UI';-inkscape-font-specification:'Segoe UI';text-anchor:middle">Cloud.Utils</text>
        <text
           x="160.68414"
           y="-45.566742"
           font-size="14.00"
           id="text80"
           style="font-style:normal;font-variant:normal;font-weight:normal;font-stretch:normal;font-size:14px;font-family:'Segoe UI';-inkscape-font-specification:'Segoe UI';text-anchor:middle">Cloud.Json</text>
        <text
           x="371.73059"
           y="-274.03491"
           font-size="14.00"
           id="text17"
           style="font-style:normal;font-variant:normal;font-weight:normal;font-stretch:normal;font-size:14px;font-family:'Segoe UI';-inkscape-font-specification:'Segoe UI';text-anchor:middle">UserCode</text>
        <text
           x="371.73059"
           y="-236.53491"
           font-size="14.00"
           id="text164"
           style="font-style:normal;font-variant:normal;font-weight:normal;font-stretch:normal;font-size:14px;font-family:'Segoe UI';-inkscape-font-specification:'Segoe UI';text-anchor:middle">Cloud.Generator</text>
        <text
           style="font-style:normal;font-variant:normal;font-weight:normal;font-stretch:normal;font-size:14px;font-family:'Segoe UI';-inkscape-font-specification:'Segoe UI';text-anchor:middle"
           id="text10"
           font-size="14.00"
           y="-174.4875"
           x="336.125">Access</text>
        <text
           style="font-style:normal;font-variant:normal;font-weight:normal;font-stretch:normal;font-size:14px;font-family:'Segoe UI';-inkscape-font-specification:'Segoe UI';text-anchor:middle"
           id="text108"
           font-size="14.00"
           y="-61.799999"
           x="488">Moble</text>
        <text
           style="font-style:normal;font-variant:normal;font-weight:normal;font-stretch:normal;font-size:14px;font-family:'Segoe UI';-inkscape-font-specification:'Segoe UI';text-anchor:middle"
           id="text122"
           font-size="14.00"
           y="-61.799999"
           x="344">Web</text>
        <text
           style="font-style:normal;font-variant:normal;font-weight:normal;font-stretch:normal;font-size:14px;font-family:'Segoe UI';-inkscape-font-specification:'Segoe UI';text-anchor:middle"
           id="text136"
           font-size="14.00"
           y="-61.799999"
           x="416">CLI</text>
        <text
           x="469.20978"
           y="-359.02365"
           font-size="14.00"
           id="text101"
           style="font-style:normal;font-variant:normal;font-weight:normal;font-stretch:normal;font-size:14px;font-family:'Segoe UI';-inkscape-font-specification:'Segoe UI';text-anchor:middle">Cloud.ReflectionApi</text>
        <text
           style="font-style:normal;font-variant:normal;font-weight:normal;font-stretch:normal;font-size:14px;font-family:'Segoe UI';-inkscape-font-specification:'Segoe UI';text-anchor:middle"
           id="text17-5"
           font-size="14.00"
           y="-408.83615"
           x="454.58478">Reflection</text>
      </g>
    </g>
  </g>
</svg>
