<?xml version="1.0" encoding="UTF-8" standalone="no"?>
<svg xmlns:dc="http://purl.org/dc/elements/1.1/" xmlns:rdf="http://www.w3.org/1999/02/22-rdf-syntax-ns#"
      xmlns:svg="http://www.w3.org/2000/svg" xmlns="http://www.w3.org/2000/svg"
      xmlns:inkscape="http://www.inkscape.org/namespaces/inkscape" width="600" height="600" viewBox="0 0 600 600"
      version="1.1" >
      <style type="text/css">
            :root {
                  --node-fill: none;
                  --node-stroke: #000;
                  --node-opacity: 1;
                  --node-stroke-width: 1px;
                  --inner-node-fill: none;
                  --inner-node-stroke: #000;
                  --inner-node-opacity: 1;
                  --inner-node-stroke-width: 1px;
            }

            .node {
                  fill: var(--node-fill);
                  fill-opacity: var(--node-opacity);
                  stroke: var(--node-stroke);
                  stroke-width: var(--node-stroke-width);
            }

            .inner-node {
                  fill: var(--inner-node-fill);
                  fill-opacity: var(--inner-node-opacity);
                  stroke: var(--inner-node-stroke);
                  stroke-width: var(--inner-node-stroke-width);
            }

            .marker {
                  fill-opacity: 1;
                  stroke-opacity: 1;
                  fill: red;
            }

            .node-link {
                  fill: none;
                  stroke-opacity: 1;
                  stroke: red;
                  stroke-width: var(--node-stroke-width);
            }

            .node-link-arrow-end {
                  fill: none;
                  stroke-opacity: 1;
                  stroke: red;
                  stroke-width: var(--node-stroke-width);
                  marker-end: url(#Arrow2Lend);
            }

            .node-link-dot-end {
                  fill: none;
                  stroke-opacity: 1;
                  stroke: red;
                  stroke-width: var(--node-stroke-width);
                  marker-end: url(#DotL);
            }
            .node-link-dot-start {
                  fill: none;
                  stroke-opacity: 1;
                  stroke: red;
                  stroke-width: var(--node-stroke-width);
                  marker-start: url(#DotM);
            }

            .node-link-dotm-end {
                  fill: none;
                  stroke-opacity: 1;
                  stroke: red;
                  stroke-width: var(--node-stroke-width);
                  marker-end: url(#DotL);
            }


            .node-link-square-ends {
                  fill: none;
                  stroke-opacity: 1;
                  stroke: red;
                  stroke-width: var(--node-stroke-width);
                  marker-end: url(#SquareL);
                  marker-start: url(#SquareL);
            }

            .mainText {
                  text-anchor: middle;
                  font-size: 16px;
                  font-family: 'Segoe UI';
                  text-align: center;
                  text-decoration: none;
                  white-space: normal;
                  opacity: 1;
                  fill: #000000;
                  fill-opacity: 1;
                  stroke: none;
            }
      </style>


      <defs id="defs2">
            <marker inkscape:stockid="DotM" orient="auto" refY="0.0" refX="0.0" id="DotM" style="overflow:visible"
                  inkscape:isstock="true">
                  <path id="path892"
                        d="M -2.5,-1.0 C -2.5, 1.7600000 -4.7400000,4.0 -7.5,4.0 C -10.260000,4.0 -12.5,1.7600000 -12.5,-1.0 C -12.5,-3.7600000 -10.260000,-6.0 -7.5,-6.0 C -4.7400000,-6.0 -2.5,-3.7600000 -2.5,-1.0 z "
                        class="marker" transform="scale(0.4) translate(7.4, 1)" />
            </marker>
            <marker inkscape:isstock="true" style="overflow:visible" id="marker1804" refX="0.0" refY="0.0" orient="auto"
                  inkscape:stockid="DotL">
                  <path class="marker" transform="scale(0.8) translate(7.4, 1)"
                        d="M -2.5,-1.0 C -2.5,1.7600000 -4.7400000,4.0 -7.5,4.0 C -10.260000,4.0 -12.5,1.7600000 -12.5,-1.0 C -12.5,-3.7600000 -10.260000,-6.0 -7.5,-6.0 C -4.7400000,-6.0 -2.5,-3.7600000 -2.5,-1.0 z "
                        id="path1802" />
            </marker>
            <marker inkscape:isstock="true" style="overflow:visible" id="marker1516" refX="0.0" refY="0.0" orient="auto"
                  inkscape:stockid="SquareL">
                  <path class="marker" transform="scale(0.8)"
                        d="M -5.0,-5.0 L -5.0,5.0 L 5.0,5.0 L 5.0,-5.0 L -5.0,-5.0 z " id="path1514" />
            </marker>
            <marker inkscape:stockid="SquareL" orient="auto" refY="0.0" refX="0.0" id="SquareL" style="overflow:visible"
                  inkscape:isstock="true" inkscape:collect="always">
                  <path id="path898" d="M -5.0,-5.0 L -5.0,5.0 L 5.0,5.0 L 5.0,-5.0 L -5.0,-5.0 z " class="marker"
                        transform="scale(0.8)" />
            </marker>
            <marker inkscape:isstock="true" style="overflow:visible" id="marker1346" refX="0.0" refY="0.0" orient="auto"
                  inkscape:stockid="DotL">
                  <path transform="scale(0.8) translate(7.4, 1)" class="marker"
                        d="M -2.5,-1.0 C -2.5,1.7600000 -4.7400000,4.0 -7.5,4.0 C -10.260000,4.0 -12.5,1.7600000 -12.5,-1.0 C -12.5,-3.7600000 -10.260000,-6.0 -7.5,-6.0 C -4.7400000,-6.0 -2.5,-3.7600000 -2.5,-1.0 z "
                        id="path1344" />
            </marker>
            <marker inkscape:stockid="DotL" orient="auto" refY="0.0" refX="0.0" id="DotL" style="overflow:visible"
                  inkscape:isstock="true" inkscape:collect="always">
                  <path id="path889"
                        d="M -2.5,-1.0 C -2.5,1.7600000 -4.7400000,4.0 -7.5,4.0 C -10.260000,4.0 -12.5,1.7600000 -12.5,-1.0 C -12.5,-3.7600000 -10.260000,-6.0 -7.5,-6.0 C -4.7400000,-6.0 -2.5,-3.7600000 -2.5,-1.0 z "
                        class="marker" transform="scale(0.8) translate(7.4, 1)" />
            </marker>
            <marker inkscape:isstock="true" style="overflow:visible;" id="marker1140" refX="0.0" refY="0.0"
                  orient="auto" inkscape:stockid="Arrow2Lend">
                  <path transform="scale(1.1) rotate(180) translate(1,0)"
                        d="M 8.7185878,4.0337352 L -2.2072895,0.016013256 L 8.7185884,-4.0017078 C 6.9730900,-1.6296469 6.9831476,1.6157441 8.7185878,4.0337352 z "
                        class="marker" id="path1138" />
            </marker>
            <marker inkscape:stockid="Arrow2Lend" orient="auto" refY="0.0" refX="0.0" id="Arrow2Lend"
                  style="overflow:visible;" inkscape:isstock="true" inkscape:collect="always">
                  <path id="path849" class="marker"
                        d="M 8.7185878,4.0337352 L -2.2072895,0.016013256 L 8.7185884,-4.0017078 C 6.9730900,-1.6296469 6.9831476,1.6157441 8.7185878,4.0337352 z "
                        transform="scale(1.1) rotate(180) translate(1,0)" />
            </marker>
            <marker inkscape:stockid="Arrow1Lend" orient="auto" refY="0.0" refX="0.0" id="Arrow1Lend"
                  style="overflow:visible;" inkscape:isstock="true">
                  <path id="path831" d="M 0.0,0.0 L 5.0,-5.0 L -12.5,0.0 L 5.0,5.0 L 0.0,0.0 z " class="marker"
                        transform="scale(0.8) rotate(180) translate(12.5,0)" />
            </marker>
            <marker inkscape:stockid="DotM" orient="auto" refY="0" refX="0" id="DotM-4" style="overflow:visible"
                  inkscape:isstock="true">
                  <path inkscape:connector-curvature="0" id="path892-8"
                        d="m -2.5,-1 c 0,2.76 -2.24,5 -5,5 -2.76,0 -5,-2.24 -5,-5 0,-2.76 2.24,-5 5,-5 2.76,0 5,2.24 5,5 z"
                        class="marker" transform="matrix(0.4,0,0,0.4,2.96,0.4)" />
            </marker>
      </defs>

      <!-- Layer Main 
  <g id="layer1">
    <rect id="TemplateRect" 
          class ="node"
          width="200" height="40" x="10" y="10"
          />

  
  <path
      class ="node-link-arrow-end"
      d="m 20, 100 h 75"
      id="path826"
      inkscape:connector-curvature="0" />

  <path id="path1136"
        d="m 20, 120 h 75"
        class="node-link-dot-end"
        />
  <path
      class="node-link-square-end"
      d="m 20 140 h 75"
      id="path1342"
      />
    
  <path id="path1512"
        class="node-link-dotm-end"
        d="m 20 160 h 75"
    />
    

    <path id="path1512-6"
          class ="node-link"
          d="m 20 180 h 75"
    />
    
  <text xml:space="preserve" class="mainText" id="text2192">
         <tspan  
             x="65"
             y="65"
            id="tspan2190">Hello World</tspan>
      </text>
  </g>
  -->

      <g id="Main">
            <g transform="translate(90,20)" id="StoreGroup">
                  <rect id="StoreRect" x="0" y="0" width="120" height="95" class="node" />
                  <text class="mainText">
                        <tspan x="60" y="18">Store</tspan>
                  </text>
                  <rect id="StoreRect.Project" x="10" y="45" width="100" height="35" class="inner-node" />
                  <text class="mainText">
                        <tspan x="60" y="65">Cloud.Store</tspan>
                  </text>
                  <path d="m 10 95 l 0 88 l 100 0" class="node-link-dot-start" />
            </g>

            
            <g transform="translate(200,140)" id="Transaction">
                  <rect id="TransactionRect" x="0" y="0" width="160" height="95" class="node" />
                  <text class="mainText">
                        <tspan x="80" y="18">Transaction</tspan>
                  </text>
                  <rect id="StoreRect.Project" x="10" y="45" width="140" height="35" class="inner-node" />
                  <text class="mainText">
                        <tspan x="80" y="65">Cloud.Transaction</tspan>
                  </text>
                  <path d="m 0 15 l -20 0 l 0 -38" class="node-link-arrow-end" />
                  <path d="m 160 65 l 40 0" class="node-link-arrow-end" />
            </g>

            <g transform="translate(400,140)" id="User">
                  <rect id="StoreRect" x="0" y="0" width="140"
                   height="95" class="node" />
                  <text class="mainText">
                        <tspan x="70" y="18">User Code</tspan>
                  </text>
                  <rect id="StoreRect.Project" x="10" y="45" width="120" height="35" class="inner-node" />
                  <text class="mainText">
                        <tspan x="70" y="65">Cloud.Generator</tspan>
                  </text>
            </g>
            <g transform="translate(390,20)" id="Reflection">
                  <rect id="Cloud.Reflection" x="0" y="0" width="160" height="95" class="node" />
                  <text class="mainText">
                        <tspan x="80" y="18">Reflection</tspan>
                  </text>
                  <rect id="StoreRect.Project" x="10" y="45" width="140" height="35" class="inner-node" />
                  <text class="mainText">
                        <tspan x="80" y="65">Cloud.Reflection</tspan>
                  </text>
            </g>

            <g transform="translate(390,300)" id="Transaction">
                  <rect id="StoreRect" x="0" y="0" width="120" height="95" class="node" />
                  <text class="mainText">
                        <tspan x="60" y="18">C</tspan>
                  </text>
                  <rect id="StoreRect.Project" x="10" y="45" width="100" height="35" class="inner-node" />
                  <text class="mainText">
                        <tspan x="60" y="65">Cloud.Store</tspan>
                  </text>
            </g>


            <g transform="translate(50,300)" id="CommonGroup">
                  <rect x="0" y="0" width="160" height="95" class="node" />
                  <text class="mainText">
                        <tspan x="80" y="18">Common</tspan>
                  </text>
                  <rect x="10" y="45" width="140" height="35" class="inner-node" />
                  <text class="mainText">
                        <tspan x="80" y="65">Cloud.Common</tspan>
                  </text>

                  <path d="m 20 0 l 0 -215 l 30 0"  class="node-link-square-ends"  />
            </g>
      </g>


</svg>