<?xml version="1.0" encoding="UTF-8" standalone="no"?>
<!-- Created with Inkscape (http://www.inkscape.org/) -->

<svg
   xmlns:dc="http://purl.org/dc/elements/1.1/"
   xmlns:cc="http://creativecommons.org/ns#"
   xmlns:rdf="http://www.w3.org/1999/02/22-rdf-syntax-ns#"
   xmlns:svg="http://www.w3.org/2000/svg"
   xmlns="http://www.w3.org/2000/svg"
   xmlns:xlink="http://www.w3.org/1999/xlink"
   xmlns:sodipodi="http://sodipodi.sourceforge.net/DTD/sodipodi-0.dtd"
   xmlns:inkscape="http://www.inkscape.org/namespaces/inkscape"
   sodipodi:docname="Logbook.svg"
   inkscape:version="0.92.5 (2060ec1f9f, 2020-04-08)"
   inkscape:export-ydpi="96"
   inkscape:export-xdpi="96"
   inkscape:export-filename="F:\ProdictionVS\ReleaseFiles\svg\PumpersLogBook.png"
   width="512"
   version="1.1"
   id="svg2"
   height="512">
  <defs
     id="defs4">
    <inkscape:path-effect
       overflow_perspective="false"
       vertical_mirror="true"
       horizontal_mirror="true"
       deform_type="perspective"
       is_visible="true"
       id="path-effect4725"
       down_right_point="105.1385,710.47837"
       down_left_point="45.636371,710.47837"
       up_right_point="105.1385,681.19928"
       up_left_point="45.636371,681.19928"
       effect="perspective-envelope" />
    <inkscape:path-effect
       effect="perspective-envelope"
       up_left_point="45.591863,681.26763"
       up_right_point="105.18301,681.26763"
       down_left_point="45.591863,710.41001"
       down_right_point="105.18301,710.41001"
       id="path-effect4669"
       is_visible="true"
       deform_type="perspective"
       horizontal_mirror="true"
       vertical_mirror="true"
       overflow_perspective="false" />
    <linearGradient
       id="linearGradient8687">
      <stop
         style="stop-color:#008c99;stop-opacity:1"
         id="stop8689"
         offset="0" />
      <stop
         style="stop-color:#0070cc;stop-opacity:1"
         id="stop8691"
         offset="1" />
    </linearGradient>
    <linearGradient
       id="linearGradient3755">
      <stop
         style="stop-color:#669900;stop-opacity:1;"
         id="stop3757"
         offset="0" />
      <stop
         style="stop-color:#99cc00;stop-opacity:1;"
         id="stop3759"
         offset="1" />
    </linearGradient>
    <linearGradient
       gradientTransform="translate(0.06692123,6.0267003)"
       gradientUnits="userSpaceOnUse"
       id="linearGradient3765"
       x1="10.68729"
       x2="511.84274"
       y1="1041.6984"
       y2="545.06628"
       inkscape:collect="always"
       xlink:href="#linearGradient3755" />
    <linearGradient
       gradientTransform="translate(0.06692123,6.0267003)"
       gradientUnits="userSpaceOnUse"
       id="linearGradient3819"
       x1="10.68729"
       x2="511.84274"
       y1="1041.6984"
       y2="545.06628"
       inkscape:collect="always"
       xlink:href="#linearGradient3755" />
    <linearGradient
       gradientTransform="matrix(1.0082053,0,0,1.0082053,-2.0330848,-0.45825777)"
       gradientUnits="userSpaceOnUse"
       id="linearGradient3823"
       x1="10.68729"
       x2="511.84274"
       y1="1041.6984"
       y2="545.06628"
       inkscape:collect="always"
       xlink:href="#linearGradient8687" />
    <filter
       style="color-interpolation-filters:sRGB;"
       id="filter8146"
       inkscape:label="Invert">
      <feColorMatrix
         id="feColorMatrix8148"
         result="color1"
         type="hueRotate"
         values="180" />
      <feColorMatrix
         id="feColorMatrix8150"
         result="color2"
         values="-1 0 0 0 1 0 -1 0 0 1 0 0 -1 0 1 -0.21 -0.72 -0.07 2 0 " />
    </filter>
    <filter
       style="color-interpolation-filters:sRGB;"
       id="filter8162"
       inkscape:label="Invert">
      <feColorMatrix
         id="feColorMatrix8164"
         result="color1"
         type="hueRotate"
         values="180" />
      <feColorMatrix
         id="feColorMatrix8166"
         result="color2"
         values="-1 0 0 0 1 0 -1 0 0 1 0 0 -1 0 1 0.21 0.72 0.07 1 0 " />
    </filter>
    <filter
       style="color-interpolation-filters:sRGB;"
       id="filter8168"
       inkscape:label="Invert">
      <feColorMatrix
         id="feColorMatrix8170"
         result="color1"
         type="hueRotate"
         values="180" />
      <feColorMatrix
         id="feColorMatrix8172"
         result="color2"
         values="-1 0 0 0 1 0 -1 0 0 1 0 0 -1 0 1 0.21 0.72 0.07 1 0 " />
    </filter>
    <filter
       style="color-interpolation-filters:sRGB;"
       id="filter8174"
       inkscape:label="Invert">
      <feColorMatrix
         id="feColorMatrix8176"
         result="color1"
         type="hueRotate"
         values="180" />
      <feColorMatrix
         id="feColorMatrix8178"
         result="color2"
         values="-1 0 0 0 1 0 -1 0 0 1 0 0 -1 0 1 0.21 0.72 0.07 1 0 " />
    </filter>
    <filter
       style="color-interpolation-filters:sRGB;"
       id="filter8401"
       inkscape:label="Invert">
      <feColorMatrix
         id="feColorMatrix8403"
         result="color1"
         type="hueRotate"
         values="180" />
      <feColorMatrix
         id="feColorMatrix8405"
         result="color2"
         values="-1 0 0 0 1 0 -1 0 0 1 0 0 -1 0 1 0.21 0.72 0.07 1 0 " />
    </filter>
    <filter
       style="color-interpolation-filters:sRGB"
       height="1.0592719"
       id="filter8377"
       width="1.0411344"
       x="-0.020567195"
       y="-0.029635935"
       inkscape:collect="always">
      <feGaussianBlur
         id="feGaussianBlur8379"
         stdDeviation="3.0544919"
         inkscape:collect="always" />
    </filter>
  </defs>
  <sodipodi:namedview
     inkscape:zoom="0.61524625"
     inkscape:window-y="-11"
     inkscape:window-x="-11"
     inkscape:window-width="1920"
     inkscape:window-maximized="1"
     inkscape:window-height="1000"
     inkscape:pageshadow="2"
     inkscape:pageopacity="0.0"
     inkscape:guide-bbox="true"
     inkscape:document-units="px"
     inkscape:cy="480.86782"
     inkscape:cx="0.95024509"
     inkscape:current-layer="g903"
     showguides="true"
     showgrid="false"
     pagecolor="#ffffff"
     id="base"
     borderopacity="1.0"
     bordercolor="#666666" />
  <metadata
     id="metadata7">
    <rdf:RDF>
      <cc:Work
         rdf:about="">
        <dc:format>image/svg+xml</dc:format>
        <dc:type
           rdf:resource="http://purl.org/dc/dcmitype/StillImage" />
        <dc:title />
      </cc:Work>
    </rdf:RDF>
  </metadata>
  <g
     id="layer1"
     transform="translate(0,-540.36218)"
     inkscape:groupmode="layer"
     inkscape:label="Layer 1">
    <text
       xml:space="preserve"
       style="font-style:normal;font-weight:normal;font-size:40px;line-height:1.25;font-family:sans-serif;letter-spacing:0px;word-spacing:0px;fill:#000000;fill-opacity:1;stroke:none"
       x="-344.79208"
       y="892.60852"
       id="text4660"><tspan
         sodipodi:role="line"
         id="tspan4658"
         x="-344.79208"
         y="929.10175"
         style="font-size:96px" /></text>
    <g
       id="g5206"
       style="opacity:0.98">
      <g
         id="g902"
         transform="matrix(1.0773108,0,0,1.0773108,-19.791565,-61.567367)"
         style="stroke:none">
        <g
           id="g903"
           transform="matrix(0.94163676,0,0,0.94163676,14.94099,46.47829)">
          <g
             id="g958">
            <rect
               style="fill:url(#linearGradient3823);fill-opacity:1;stroke:none;stroke-width:3.89961576;stroke-miterlimit:4;stroke-dasharray:none;stroke-dashoffset:0;stroke-opacity:1"
               height="475.25748"
               id="rect2985"
               ry="85.346359"
               width="475.25748"
               x="18.371262"
               y="558.7334" />
            <g
               id="g8122"
               transform="matrix(0.95667248,0,0,0.858536,5.0559971,106.80661)"
               style="opacity:0.98999999;stroke:none">
              <g
                 transform="matrix(0.8860135,0,0,0.88169448,791.37863,9.7527035)"
                 id="g105"
                 style="stroke:none">
                <g
                   transform="matrix(1.3260475,0,0,1.3260475,194.1,-283.96731)"
                   id="g81"
                   style="stroke:none">
                  <g
                     id="g926">
                    <path
                       style="opacity:1;fill:#151515;fill-opacity:1;stroke:none;stroke-width:1.66978645;stroke-linecap:butt;stroke-linejoin:miter;stroke-miterlimit:4.19999981;stroke-dasharray:none;stroke-dashoffset:0;stroke-opacity:1;filter:url(#filter8377)"
                       d="m -593.75407,770.26926 c 0,0 168.26737,54.92686 168.26737,54.92686 8.70214,2.84061 10.2331,11.16386 3.43265,18.66201 0,0 -148.25665,163.46727 -148.25665,163.46727 -6.80044,7.4982 -19.28086,11.2478 -27.983,8.4072 0,0 -168.26737,-54.92691 -168.26737,-54.92691 -3.87214,-1.26397 -6.32444,-4.87561 -7.25465,-7.75494 -1.16036,-3.59157 0.0475,-6.74532 3.822,-10.90707 0,0 148.25665,-163.46731 148.25665,-163.46731 6.80045,-7.49814 19.28086,-11.24771 27.983,-8.40711 z"
                       id="path8147"
                       transform="matrix(1.0424103,0,0,1.0428729,24.614873,-38.519054)"
                       inkscape:connector-curvature="0"
                       sodipodi:nodetypes="ssssssssss" />
                    <path
                       style="opacity:1;fill:#494949;fill-opacity:1;stroke:none;stroke-width:1.74098873;stroke-linecap:butt;stroke-linejoin:miter;stroke-miterlimit:4.19999981;stroke-dasharray:none;stroke-dashoffset:0;stroke-opacity:1"
                       d="m -593.75407,788.61091 c 0,0 168.26737,49.9884 168.26737,49.9884 8.70214,2.58521 10.2331,10.16012 3.43265,16.98411 0,0 -148.25665,148.76998 -148.25665,148.76998 -6.80044,6.824 -19.28086,10.2365 -27.983,7.6513 0,0 -168.26737,-49.98844 -168.26737,-49.98844 -3.87214,-1.15033 -6.32444,-4.43725 -7.25465,-7.0577 -1.16036,-3.26865 0.0475,-6.13885 3.822,-9.92642 0,0 148.25665,-148.77 148.25665,-148.77 6.80045,-6.82399 19.28086,-10.23644 27.983,-7.65123 z"
                       id="rect8283"
                       inkscape:connector-curvature="0"
                       sodipodi:nodetypes="ssssssssss" />
                    <path
                       style="fill:#000000;fill-opacity:1;fill-rule:nonzero;stroke:none"
                       d="m -541.43603,845.85257 c 0,0 -99.80583,100.15141 -99.80583,100.15141 0,0 -32.5159,-9.65973 -32.5159,-9.65973 -7.59633,-2.2567 -11.17591,-6.6133 -8.03646,-9.76362 0,0 1.47042,-1.47551 1.47042,-1.47551 2.41428,-0.17349 4.30249,-0.72262 5.22998,-1.65332 0,0 80.58991,-80.86896 80.58991,-80.86896 0.92749,-0.9307 0.74638,-2.09458 -0.29813,-3.2956 0,0 1.47042,-1.47551 1.47042,-1.47551 3.13942,-3.15029 11.78336,-3.87559 19.37969,-1.61889 0,0 32.5159,9.65973 32.5159,9.65973 z m 0,0 c 0,0 -99.80583,100.15141 -99.80583,100.15141 0,0 32.51589,9.65973 32.51589,9.65973 7.59634,2.2567 16.24026,1.53142 19.37971,-1.6189 0,0 1.47042,-1.47551 1.47042,-1.47551 -1.04452,-1.20101 -1.22563,-2.36489 -0.29814,-3.2956 0,0 80.58992,-80.86895 80.58992,-80.86895 0.92749,-0.93071 2.8157,-1.47984 5.22997,-1.65333 0,0 1.47042,-1.47551 1.47042,-1.47551 3.13942,-3.15029 -0.44013,-7.50691 -8.03647,-9.76361 0,0 -32.51589,-9.65973 -32.51589,-9.65973 z"
                       id="path8285"
                       inkscape:connector-curvature="0" />
                    <g
                       style="stroke:none"
                       id="g8287"
                       transform="matrix(0.32638289,0.09696092,-0.29225717,0.29326912,-141.77312,703.59172)">
                      <path
                         style="fill:#000000;fill-opacity:1;fill-rule:nonzero;stroke:none"
                         d="m -680.78027,778.92542 c 0,0 142.23519,0 142.23519,0 41.42148,0 74.76801,5.72031 74.76801,12.82581 0,0 0,1.27105 0,1.27105 0,7.1055 -33.34653,12.82581 -74.76801,12.82581 0,0 -142.23519,0 -142.23519,0 -41.42148,0 -74.76801,-5.72031 -74.76801,-12.82581 0,0 0,-1.27105 0,-1.27105 0,-7.1055 33.34653,-12.82581 74.76801,-12.82581 z"
                         id="rect8289"
                         inkscape:connector-curvature="0" />
                      <path
                         style="fill:#737373;fill-opacity:1;fill-rule:nonzero;stroke:none"
                         d="m -635.40417,788.39319 c 0,0 52.6123,0 52.6123,0 63.2431,0 114.15723,0.95474 114.15723,2.14068 0,0 0,3.69157 0,3.69157 0,1.18594 -50.91413,2.14068 -114.15723,2.14068 0,0 -52.6123,0 -52.6123,0 -63.24311,0 -114.15723,-0.95474 -114.15723,-2.14068 0,0 0,-3.69157 0,-3.69157 0,-1.18594 50.91412,-2.14068 114.15723,-2.14068 z"
                         id="rect8291"
                         inkscape:connector-curvature="0" />
                    </g>
                    <path
                       style="fill:#ffffff;fill-opacity:1;fill-rule:nonzero;stroke:none"
                       d="m -547.09065,909.26381 c 0.0356,0.0106 0.0129,0.0705 -0.0508,0.13444 -0.0637,0.0639 -0.1436,0.10686 -0.17917,0.0963 -0.0356,-0.0106 -0.0129,-0.0705 0.0508,-0.13444 0.0637,-0.0639 0.1436,-0.10686 0.17917,-0.0963 z"
                       id="rect8293"
                       inkscape:connector-curvature="0" />
                    <g
                       style="stroke:none"
                       id="g8295"
                       transform="matrix(0.32638289,0.09696092,-0.29225717,0.29326912,-179.77644,741.72662)">
                      <path
                         style="fill:#000000;fill-opacity:1;fill-rule:nonzero;stroke:none"
                         d="m -680.78027,778.92542 c 0,0 142.23518,0 142.23518,0 41.42148,0 74.76801,5.72031 74.76801,12.82581 0,0 0,1.27105 0,1.27105 0,7.1055 -33.34653,12.82581 -74.76801,12.82581 0,0 -142.23518,0 -142.23518,0 -41.42148,0 -74.76801,-5.72031 -74.76801,-12.82581 0,0 0,-1.27105 0,-1.27105 0,-7.1055 33.34653,-12.82581 74.76801,-12.82581 z"
                         id="rect8297"
                         inkscape:connector-curvature="0" />
                      <path
                         style="fill:#737373;fill-opacity:1;fill-rule:nonzero;stroke:none"
                         d="m -635.40417,788.39319 c 0,0 52.6123,0 52.6123,0 63.24309,0 114.15722,0.95474 114.15722,2.14068 0,0 0,3.69157 0,3.69157 0,1.18594 -50.91413,2.14068 -114.15723,2.14068 0,0 -52.61229,0 -52.61229,0 -63.24311,0 -114.15723,-0.95474 -114.15723,-2.14068 0,0 0,-3.69157 0,-3.69157 0,-1.18594 50.91412,-2.14068 114.15723,-2.14068 z"
                         id="rect8299"
                         inkscape:connector-curvature="0" />
                    </g>
                    <path
                       style="opacity:1;fill:#ffffff;fill-opacity:1;stroke:none;stroke-width:1.74098778;stroke-linecap:butt;stroke-linejoin:miter;stroke-miterlimit:4.19999981;stroke-dasharray:none;stroke-dashoffset:0;stroke-opacity:1"
                       d="m -595.57343,779.38528 c 0,0 164.93407,50.41031 164.93407,50.41031 3.47477,1.06202 5.81617,1.54123 5.68201,4.1155 -0.25157,4.82689 1.79324,9.14679 -2.08027,13.04137 0,0 -146.20989,147.00517 -146.20989,147.00517 -6.73812,6.77477 -14.21986,10.35067 -22.87487,7.74757 0,0 -166.33925,-50.02738 -166.33925,-50.02738 -2.13544,-0.64235 -7.00443,-1.09203 -6.9807,-2.76813 0.0351,-2.4803 -0.59928,-11.42613 0.12198,-16.06238 0.17304,-1.11241 2.34986,2.61013 3.25699,1.67362 0,0 142.88853,-147.51568 142.88853,-147.51568 6.64791,-6.86319 18.95814,-10.2617 27.6014,-7.61997 z"
                       id="rect8314"
                       inkscape:connector-curvature="0"
                       sodipodi:nodetypes="ssssssssssss" />
                    <path
                       style="opacity:1;fill:#7a7a7a;fill-opacity:1;stroke:none;stroke-width:1.74098766;stroke-linecap:butt;stroke-linejoin:miter;stroke-miterlimit:4.19999981;stroke-dasharray:none;stroke-dashoffset:0;stroke-opacity:1"
                       d="m -593.75407,762.2268 c 0,0 168.26737,49.9884 168.26737,49.9884 8.70214,2.5852 10.2331,10.16012 3.43266,16.98411 0,0 -148.25665,148.76999 -148.25665,148.76999 -6.80045,6.824 -19.28086,10.23644 -27.983,7.65124 0,0 -168.26737,-49.9884 -168.26737,-49.9884 -8.70214,-2.58521 -10.2331,-10.16012 -3.43265,-16.98411 0,0 148.25664,-148.76999 148.25664,-148.76999 6.80045,-6.82399 19.28086,-10.23645 27.983,-7.65124 z"
                       id="rect8263"
                       inkscape:connector-curvature="0" />
                    <path
                       style="fill:#000000;fill-opacity:1;fill-rule:nonzero;stroke:none"
                       d="m -541.43603,820.72485 c 0,0 -99.80583,100.15141 -99.80583,100.15141 0,0 -32.5159,-9.65973 -32.5159,-9.65973 -7.59633,-2.2567 -11.17591,-6.6133 -8.03646,-9.76362 0,0 1.47042,-1.47551 1.47042,-1.47551 2.41428,-0.17349 4.30249,-0.72262 5.22998,-1.65332 0,0 80.58991,-80.86896 80.58991,-80.86896 0.92749,-0.93071 0.74638,-2.09459 -0.29813,-3.2956 0,0 1.47042,-1.47551 1.47042,-1.47551 3.13942,-3.15029 11.78336,-3.87559 19.37969,-1.61889 0,0 32.5159,9.65973 32.5159,9.65973 z m 0,0 c 0,0 -99.80583,100.15141 -99.80583,100.15141 0,0 32.51589,9.65973 32.51589,9.65973 7.59634,2.2567 16.24026,1.53142 19.37971,-1.6189 0,0 1.47042,-1.47551 1.47042,-1.47551 -1.04452,-1.20102 -1.22563,-2.3649 -0.29814,-3.2956 0,0 80.58992,-80.86896 80.58992,-80.86896 0.92749,-0.9307 2.8157,-1.47983 5.22997,-1.65332 0,0 1.47042,-1.47551 1.47042,-1.47551 3.13942,-3.15029 -0.44013,-7.50691 -8.03647,-9.76361 0,0 -32.51589,-9.65973 -32.51589,-9.65973 z"
                       id="path8265"
                       inkscape:connector-curvature="0" />
                    <g
                       style="stroke:none"
                       id="g8267"
                       transform="matrix(0.32638289,0.09696092,-0.29225717,0.29326912,-141.77312,678.464)">
                      <path
                         style="fill:#000000;fill-opacity:1;fill-rule:nonzero;stroke:none"
                         d="m -680.78027,778.92542 c 0,0 142.23519,0 142.23519,0 41.42148,0 74.76801,5.72031 74.76801,12.82581 0,0 0,1.27105 0,1.27105 0,7.1055 -33.34653,12.82581 -74.76801,12.82581 0,0 -142.23519,0 -142.23519,0 -41.42148,0 -74.76801,-5.72031 -74.76801,-12.82581 0,0 0,-1.27105 0,-1.27105 0,-7.1055 33.34653,-12.82581 74.76801,-12.82581 z"
                         id="rect8269"
                         inkscape:connector-curvature="0" />
                      <path
                         style="fill:#737373;fill-opacity:1;fill-rule:nonzero;stroke:none"
                         d="m -635.40417,788.39319 c 0,0 52.6123,0 52.6123,0 63.2431,0 114.15723,0.95474 114.15723,2.14068 0,0 0,3.69157 0,3.69157 0,1.18594 -50.91413,2.14068 -114.15723,2.14068 0,0 -52.6123,0 -52.6123,0 -63.24311,0 -114.15723,-0.95474 -114.15723,-2.14068 0,0 0,-3.69157 0,-3.69157 0,-1.18594 50.91412,-2.14068 114.15723,-2.14068 z"
                         id="rect8271"
                         inkscape:connector-curvature="0" />
                    </g>
                    <path
                       style="fill:#ffffff;fill-opacity:1;fill-rule:nonzero;stroke:none"
                       d="m -547.09065,884.13608 c 0.0356,0.0106 0.0129,0.0705 -0.0508,0.13444 -0.0637,0.0639 -0.1436,0.10687 -0.17917,0.0963 -0.0356,-0.0106 -0.0129,-0.0705 0.0508,-0.13444 0.0637,-0.0639 0.1436,-0.10687 0.17917,-0.0963 z"
                       id="rect8273"
                       inkscape:connector-curvature="0" />
                    <g
                       style="stroke:none"
                       id="g8275"
                       transform="matrix(0.32638289,0.09696092,-0.29225717,0.29326912,-179.77644,716.5989)">
                      <path
                         style="fill:#000000;fill-opacity:1;fill-rule:nonzero;stroke:none"
                         d="m -680.78027,778.92542 c 0,0 142.23519,0 142.23519,0 41.42148,0 74.76801,5.72031 74.76801,12.82581 0,0 0,1.27105 0,1.27105 0,7.1055 -33.34653,12.82581 -74.76801,12.82581 0,0 -142.23519,0 -142.23519,0 -41.42148,0 -74.76801,-5.72031 -74.76801,-12.82581 0,0 0,-1.27105 0,-1.27105 0,-7.1055 33.34653,-12.82581 74.76801,-12.82581 z"
                         id="rect8277"
                         inkscape:connector-curvature="0" />
                      <path
                         style="fill:#737373;fill-opacity:1;fill-rule:nonzero;stroke:none"
                         d="m -635.40417,788.39319 h 52.6123 c 63.2431,0 114.15723,0.95474 114.15723,2.14068 v 3.69157 c 0,1.18594 -50.91413,2.14068 -114.15723,2.14068 h -52.6123 c -63.24311,0 -114.15723,-0.95474 -114.15723,-2.14068 v -3.69157 c 0,-1.18594 50.91412,-2.14068 114.15723,-2.14068 z"
                         id="rect8279"
                         inkscape:connector-curvature="0" />
                    </g>
                    <path
                       style="fill:#272727;fill-opacity:1;fill-rule:evenodd;stroke:none;stroke-width:1.74098778;stroke-linecap:butt;stroke-linejoin:miter;stroke-miterlimit:4;stroke-dasharray:none;stroke-opacity:1"
                       d="m -774.25542,927.54854 -0.15003,25.77906 c 1.15113,2.77054 1.77018,5.69816 4.9726,6.60175 0.53477,-8.75829 0.0781,-16.97551 0.24413,-25.43891 -2.13018,-1.81788 -4.6861,-2.89773 -5.06669,-6.9419 z"
                       id="path8303"
                       inkscape:connector-curvature="0"
                       sodipodi:nodetypes="cccccc" />
                  </g>
                </g>
              </g>
            </g>
            <path
               style="fill:#ffffff;fill-opacity:0.07434944;stroke:none"
               d="m 136.20279,582.95593 h 258.9859 c 40.82747,0 75.62436,48.49858 75.54657,65.06191 l -0.57465,122.36203 C 245.49326,952.20875 -69.971345,586.45025 136.20279,582.95593 Z"
               id="rect3767"
               inkscape:connector-curvature="0"
               sodipodi:nodetypes="csscc" />
            <g
               aria-label="="
               style="font-style:normal;font-weight:normal;font-size:64px;line-height:1.25;font-family:sans-serif;letter-spacing:0px;word-spacing:0px;fill:#ffffff;fill-opacity:1;stroke:none"
               id="text5162"
               transform="translate(141.46921,76.399925)">
              <path
                 d="m 124.26056,704.20557 -28.477987,-7.53417 4.052976,-3.82634 28.901681,7.23048 z"
                 id="path5164"
                 inkscape:connector-curvature="0"
                 sodipodi:nodetypes="ccccc"
                 style="stroke:none" />
              <path
                 sodipodi:nodetypes="ccccc"
                 inkscape:connector-curvature="0"
                 id="path5167"
                 d="m 131.79232,697.65693 -28.47799,-7.53417 4.05297,-3.82634 28.90168,7.23048 z"
                 style="stroke:none" />
            </g>
          </g>
        </g>
      </g>
    </g>
  </g>
</svg>
