<?xml version="1.0" encoding="UTF-8" standalone="no"?>
<!-- Created with Inkscape (http://www.inkscape.org/) -->

<svg
   xmlns:dc="http://purl.org/dc/elements/1.1/"
   xmlns:cc="http://creativecommons.org/ns#"
   xmlns:rdf="http://www.w3.org/1999/02/22-rdf-syntax-ns#"
   xmlns:svg="http://www.w3.org/2000/svg"
   xmlns="http://www.w3.org/2000/svg"
   xmlns:xlink="http://www.w3.org/1999/xlink"
   xmlns:sodipodi="http://sodipodi.sourceforge.net/DTD/sodipodi-0.dtd"
   xmlns:inkscape="http://www.inkscape.org/namespaces/inkscape"
   height="512"
   id="svg2"
   version="1.1"
   width="512"
   inkscape:export-filename="C:\Projects\Android Apps\BarrelCalcuilator\app\src\main\res\drawable\icon2.png"
   inkscape:export-xdpi="11.25"
   inkscape:export-ydpi="11.25"
   inkscape:version="0.92.5 (2060ec1f9f, 2020-04-08)"
   sodipodi:docname="ic_barrel_black.svg">
  <defs
     id="defs4">
    <linearGradient
       id="linearGradient3755">
      <stop
         style="stop-color:#669900;stop-opacity:1;"
         id="stop3757"
         offset="0" />
      <stop
         style="stop-color:#99cc00;stop-opacity:1;"
         id="stop3759"
         offset="1" />
    </linearGradient>
    <linearGradient
       gradientTransform="translate(0.06692123,6.0267003)"
       gradientUnits="userSpaceOnUse"
       id="linearGradient3765"
       x1="10.68729"
       x2="511.84274"
       y1="1041.6984"
       y2="545.06628"
       inkscape:collect="always"
       xlink:href="#linearGradient3755" />
    <linearGradient
       gradientTransform="translate(0.06692123,6.0267003)"
       gradientUnits="userSpaceOnUse"
       id="linearGradient3819"
       x1="10.68729"
       x2="511.84274"
       y1="1041.6984"
       y2="545.06628"
       inkscape:collect="always"
       xlink:href="#linearGradient3755" />
  </defs>
  <sodipodi:namedview
     bordercolor="#666666"
     borderopacity="1.0"
     id="base"
     pagecolor="#ffffff"
     showgrid="false"
     showguides="true"
     inkscape:current-layer="g838"
     inkscape:cx="142.31013"
     inkscape:cy="303.66551"
     inkscape:document-units="px"
     inkscape:guide-bbox="true"
     inkscape:pageopacity="0.0"
     inkscape:pageshadow="2"
     inkscape:window-height="1000"
     inkscape:window-maximized="1"
     inkscape:window-width="1920"
     inkscape:window-x="-11"
     inkscape:window-y="-11"
     inkscape:zoom="0.4350448" />
  <metadata
     id="metadata7">
    <rdf:RDF>
      <cc:Work
         rdf:about="">
        <dc:format>image/svg+xml</dc:format>
        <dc:type
           rdf:resource="http://purl.org/dc/dcmitype/StillImage" />
        <dc:title></dc:title>
      </cc:Work>
    </rdf:RDF>
  </metadata>
  <g
     id="layer1"
     transform="translate(0,-540.3622)"
     inkscape:groupmode="layer"
     inkscape:label="Layer 1">
    <g
       id="g3894"
       transform="matrix(0.79789872,0,0,0.96319054,742.44904,32.163295)">
      <g
         id="g12574"
         transform="matrix(0.09728526,0,0,0.09728526,-852.356,953.2035)">
        <g
           id="g12584"
           transform="matrix(1.2633172,0,0,1.2531249,276.07969,-160.94917)">
          <g
             id="g838"
             transform="matrix(9.8948796,0,0,9.6855358,7788.6907,-8866.8966)">
            <path
               style="opacity:0.98000004;fill:#000000;fill-opacity:1;stroke:#000000;stroke-width:1.02606893;stroke-linecap:round;stroke-linejoin:round;stroke-miterlimit:4;stroke-dasharray:none;stroke-dashoffset:10;stroke-opacity:1;paint-order:markers stroke fill"
               d="M 256 59.552734 A 119.34379 19.230859 0 0 0 150.21289 69.914062 L 146.47461 69.914062 L 146.47461 71.162109 A 119.34379 19.230859 0 0 0 136.65625 78.783203 A 119.34379 19.230859 0 0 0 146.47461 86.367188 L 146.47461 181.44531 A 119.34379 19.230859 0 0 0 136.65625 189.06836 A 119.34379 19.230859 0 0 0 146.47461 196.65039 L 146.47461 309.44531 A 119.34379 19.230859 0 0 0 136.65625 317.06836 A 119.34379 19.230859 0 0 0 146.47461 324.65234 L 146.47461 427.44727 A 119.34379 19.230859 0 0 0 136.65625 435.06836 A 119.34379 19.230859 0 0 0 256 454.29883 A 119.34379 19.230859 0 0 0 375.34375 435.06836 A 119.34379 19.230859 0 0 0 365.52539 427.48438 L 365.52539 324.68945 A 119.34379 19.230859 0 0 0 375.34375 317.06836 A 119.34379 19.230859 0 0 0 365.52539 309.48438 L 365.52539 196.68945 A 119.34379 19.230859 0 0 0 375.34375 189.06836 A 119.34379 19.230859 0 0 0 365.52539 181.48438 L 365.52539 86.404297 A 119.34379 19.230859 0 0 0 375.34375 78.783203 A 119.34379 19.230859 0 0 0 365.52539 71.199219 L 365.52539 69.914062 L 361.83789 69.914062 A 119.34379 19.230859 0 0 0 256 59.552734 z M 256 63.072266 C 316.48925 63.072266 365.52539 70.720449 365.52539 76.771484 C 365.52539 82.82252 316.48925 87.728516 256 87.728516 C 195.51075 87.728516 146.47461 82.82252 146.47461 76.771484 C 146.47461 70.720449 195.51075 63.072266 256 63.072266 z M 149.39844 185.83594 C 163.26562 185.76753 204.85249 194.24023 254 194.24023 C 314.48925 194.24023 363.52539 183.14037 363.52539 189.19141 C 363.52539 195.24244 314.48925 201.72852 254 201.72852 C 193.51075 201.72852 144.47461 193.50807 144.47461 187.45703 C 144.47461 186.32246 146.19832 185.85172 149.39844 185.83594 z M 149.39844 314.55859 C 163.26562 314.49018 204.85249 322.96289 254 322.96289 C 314.48925 322.96289 363.52539 311.86303 363.52539 317.91406 C 363.52539 323.9651 314.48925 330.45117 254 330.45117 C 193.51075 330.45117 144.47461 322.23072 144.47461 316.17969 C 144.47461 315.04512 146.19832 314.57438 149.39844 314.55859 z "
               transform="matrix(1.0305813,0,0,0.87927098,-873.49146,568.31028)"
               id="rect828" />
            <ellipse
               ry="9.6558895"
               rx="102.59136"
               cy="949.04462"
               cx="-609.66266"
               id="ellipse832"
               style="opacity:0.98000004;fill:#000000;fill-opacity:1;stroke:#000000;stroke-width:0.93348771;stroke-linecap:round;stroke-linejoin:round;stroke-miterlimit:4;stroke-dasharray:none;stroke-dashoffset:10;stroke-opacity:1;paint-order:markers stroke fill" />
          </g>
        </g>
      </g>
    </g>
    <text
       style="font-style:normal;font-weight:normal;line-height:0%;font-family:sans-serif;letter-spacing:0px;word-spacing:0px;fill:#000000;fill-opacity:1;stroke:none"
       id="text3904"
       transform="translate(0,540.36218)"
       x="-203.61987"
       y="333.41534"
       xml:space="preserve"><tspan
         style="font-size:72px;line-height:1.25;font-family:sans-serif"
         id="tspan3906"
         x="-203.61987"
         y="333.41534"
         sodipodi:role="line"> </tspan></text>
  </g>
</svg>
