<?xml version="1.0" encoding="UTF-8" standalone="no"?>
<!-- Created with Inkscape (http://www.inkscape.org/) -->

<svg
   xmlns:dc="http://purl.org/dc/elements/1.1/"
   xmlns:cc="http://creativecommons.org/ns#"
   xmlns:rdf="http://www.w3.org/1999/02/22-rdf-syntax-ns#"
   xmlns:svg="http://www.w3.org/2000/svg"
   xmlns="http://www.w3.org/2000/svg"
   xmlns:xlink="http://www.w3.org/1999/xlink"
   xmlns:sodipodi="http://sodipodi.sourceforge.net/DTD/sodipodi-0.dtd"
   xmlns:inkscape="http://www.inkscape.org/namespaces/inkscape"
   height="48"
   id="svg2"
   version="1.1"
   width="48"
   inkscape:export-filename="C:\Projects\Android Apps\BarrelCalcuilator\app\src\main\res\drawable\icon2.png"
   inkscape:export-xdpi="11.25"
   inkscape:export-ydpi="11.25"
   inkscape:version="0.92.5 (2060ec1f9f, 2020-04-08)"
   sodipodi:docname="ic_math_black_24px.svg">
  <defs
     id="defs4">
    <linearGradient
       id="linearGradient3755">
      <stop
         style="stop-color:#669900;stop-opacity:1;"
         id="stop3757"
         offset="0" />
      <stop
         style="stop-color:#99cc00;stop-opacity:1;"
         id="stop3759"
         offset="1" />
    </linearGradient>
    <linearGradient
       gradientTransform="translate(0.06692123,6.0267003)"
       gradientUnits="userSpaceOnUse"
       id="linearGradient3765"
       x1="10.68729"
       x2="511.84274"
       y1="1041.6984"
       y2="545.06628"
       inkscape:collect="always"
       xlink:href="#linearGradient3755" />
    <linearGradient
       gradientTransform="translate(0.06692123,6.0267003)"
       gradientUnits="userSpaceOnUse"
       id="linearGradient3819"
       x1="10.68729"
       x2="511.84274"
       y1="1041.6984"
       y2="545.06628"
       inkscape:collect="always"
       xlink:href="#linearGradient3755" />
    <clipPath
       clipPathUnits="userSpaceOnUse"
       id="clipEmfPath1">
      <path
         d="m 0,0 584.262,0 0,16.629 -584.262,0 z"
         id="path8094"
         inkscape:connector-curvature="0" />
    </clipPath>
    <pattern
       height="6"
       id="EMFhbasepattern"
       patternUnits="userSpaceOnUse"
       width="6"
       x="0"
       y="0" />
  </defs>
  <sodipodi:namedview
     bordercolor="#666666"
     borderopacity="1.0"
     id="base"
     pagecolor="#ffffff"
     showgrid="false"
     showguides="false"
     inkscape:current-layer="g12584"
     inkscape:cx="-0.91167857"
     inkscape:cy="20.586081"
     inkscape:document-units="px"
     inkscape:guide-bbox="true"
     inkscape:pageopacity="0.0"
     inkscape:pageshadow="2"
     inkscape:window-height="1000"
     inkscape:window-maximized="1"
     inkscape:window-width="1920"
     inkscape:window-x="-11"
     inkscape:window-y="-11"
     inkscape:zoom="13.921433" />
  <metadata
     id="metadata7">
    <rdf:RDF>
      <cc:Work
         rdf:about="">
        <dc:format>image/svg+xml</dc:format>
        <dc:type
           rdf:resource="http://purl.org/dc/dcmitype/StillImage" />
        <dc:title></dc:title>
      </cc:Work>
    </rdf:RDF>
  </metadata>
  <g
     id="layer1"
     transform="translate(0,-1004.3622)"
     inkscape:groupmode="layer"
     inkscape:label="Layer 1">
    <g
       id="g3894"
       transform="matrix(0.79789872,0,0,0.96319054,742.44904,32.163295)">
      <g
         id="g12574"
         transform="matrix(0.09728526,0,0,0.09728526,-852.356,953.2035)">
        <g
           id="g12584"
           transform="translate(115.54503,39.881053)">
          <g
             id="g8126"
             transform="matrix(1.1239777,0,0,1.1239777,-1124.6494,-95.653962)">
            <g
               aria-label="ƒ"
               transform="scale(1.0987078,0.91016009)"
               style="font-style:normal;font-variant:normal;font-weight:400;line-height:0%;font-family:Tahoma;text-align:start;letter-spacing:0px;word-spacing:0px;text-anchor:start;fill:#000000;fill-opacity:1;stroke:none"
               id="text8097">
              <path
                 d="m 286.22562,947.36186 q 0,14.8856 -2.71948,25.47728 -2.57636,10.59167 -8.01533,17.31882 -5.29584,6.87028 -13.74055,10.01914 -8.44472,3.1489 -20.03831,3.1489 -6.44089,0 -12.02299,-0.7157 -5.72523,-0.7156 -10.7348,-1.8607 v -25.47724 h 11.73672 q 1.43131,5.29584 3.29201,8.58785 1.8607,3.292 3.86453,5.1527 2.14696,2.00384 4.29392,2.57636 2.29009,0.71565 4.43706,0.71565 4.86644,0 7.72906,-2.14696 3.00574,-2.14696 4.58018,-6.58401 1.57444,-4.43706 2.14697,-11.30734 0.57252,-6.72714 0.57252,-16.03064 V 817.97163 H 244.2883 v -7.29967 q 5.43897,-0.85878 7.15654,-1.28817 1.8607,-0.57253 3.43514,-1.57444 1.71757,-1.00192 2.86262,-2.86262 1.28817,-1.8607 2.14696,-5.43897 1.00191,-3.7214 1.57444,-10.30541 1.28817,-15.60126 5.5821,-25.33415 4.43705,-9.73289 12.73864,-16.60317 8.44471,-6.87028 17.89134,-9.58976 9.58977,-2.86262 22.47154,-2.86262 11.30733,0 19.17952,1.57444 v 25.90667 h -14.16995 q -2.71948,-8.44472 -6.44088,-11.87985 -3.57827,-3.57827 -10.16229,-3.57827 -4.72331,0 -8.01532,1.28817 -3.14888,1.28818 -5.86836,4.00766 -2.71949,2.71949 -4.72332,7.29967 -1.8607,4.58019 -2.86261,11.45047 -0.85879,6.72714 -0.85879,17.60508 v 15.02873 h 34.20826 v 14.45621 h -34.20826 z"
                 style="font-style:normal;font-variant:normal;font-weight:normal;font-stretch:normal;font-size:293.13183594px;font-family:'Cambria Math';-inkscape-font-specification:'Cambria Math';text-align:start;text-anchor:start;fill:#000000"
                 id="path834" />
            </g>
            <g
               aria-label="(x)"
               transform="scale(1.0987078,0.91016009)"
               style="font-style:normal;font-weight:normal;line-height:0%;font-family:sans-serif;letter-spacing:0px;word-spacing:0px;fill:#000000;fill-opacity:1;stroke:none;stroke-width:1px;stroke-linecap:butt;stroke-linejoin:miter;stroke-opacity:1"
               id="text8122">
              <path
                 d="m 365.04498,867.97013 q 0,40.49691 12.95901,66.76205 13.07472,26.26513 39.80268,35.17445 l -2.77693,8.90932 q -33.9017,-8.90932 -51.95175,-38.41421 -18.05005,-29.38918 -18.05005,-71.27455 0,-41.76967 18.05005,-71.27456 18.16576,-29.6206 51.95175,-38.52992 l 3.12405,8.90932 q -27.07508,8.90932 -40.1498,34.82734 -12.95901,25.80232 -12.95901,64.91076 z"
                 style="font-style:normal;font-variant:normal;font-weight:normal;font-stretch:normal;font-size:236.96476746px;line-height:1.25;font-family:'Cambria Math';-inkscape-font-specification:'Cambria Math'"
                 id="path837" />
              <path
                 d="m 482.94884,859.75504 15.04171,-19.0914 q 2.42981,-3.12404 3.93399,-6.01668 1.50417,-3.00834 1.50417,-6.13239 0,-2.66122 -1.967,-4.39681 -1.96699,-1.73558 -6.13239,-2.54552 v -5.66956 h 37.83569 v 5.66956 q -4.39681,1.27276 -9.02503,4.97534 -4.51251,3.70257 -11.10772,11.91766 l -23.95103,29.38919 26.38084,35.52157 q 5.66957,7.63656 10.18208,11.68625 4.51252,4.04969 9.02503,5.78527 v 5.66957 h -46.51359 v -5.66957 q 9.60355,-1.15705 9.60355,-7.17374 0,-2.42981 -0.80994,-4.62821 -0.80994,-2.19841 -3.00834,-5.09104 l -16.77729,-23.3725 -17.81864,23.14109 q -1.96699,2.54552 -3.12405,4.74392 -1.04135,2.0827 -1.04135,4.74392 0,3.12405 2.0827,5.20675 2.1984,1.96699 6.82662,2.42981 v 5.66957 h -38.64562 v -5.66957 q 3.81828,-1.38846 6.82662,-3.47116 3.12405,-2.0827 6.2481,-5.32245 3.23975,-3.35546 8.44649,-9.71926 l 24.06674,-29.85201 -24.64526,-33.78599 q -5.09104,-6.94233 -8.09938,-10.06637 -3.00835,-3.12405 -5.55387,-4.74393 -2.54552,-1.61987 -5.09104,-2.31411 v -5.66956 h 45.35654 v 5.66956 q -9.14073,1.38847 -9.14073,7.17374 0,2.66123 1.15706,5.32245 1.27276,2.66123 3.81828,5.90098 z"
                 style="font-style:normal;font-variant:normal;font-weight:normal;font-stretch:normal;font-size:236.96476746px;line-height:1.25;font-family:'Cambria Math';-inkscape-font-specification:'Cambria Math'"
                 id="path839" />
              <path
                 d="m 595.06742,867.97013 q 0,-39.10844 -12.95901,-64.91076 -12.95901,-25.91802 -40.14979,-34.82734 l 3.12405,-8.90932 q 33.78599,8.90932 51.83604,38.52992 18.16576,29.50489 18.16576,71.27456 0,41.88537 -18.05005,71.27455 -18.05005,29.50489 -51.95175,38.41421 l -2.77693,-8.90932 q 26.72796,-8.90932 39.68697,-35.17445 13.07471,-26.26514 13.07471,-66.76205 z"
                 style="font-style:normal;font-variant:normal;font-weight:normal;font-stretch:normal;font-size:236.96476746px;line-height:1.25;font-family:'Cambria Math';-inkscape-font-specification:'Cambria Math'"
                 id="path841" />
            </g>
          </g>
        </g>
      </g>
    </g>
    <text
       style="font-style:normal;font-weight:normal;line-height:0%;font-family:sans-serif;letter-spacing:0px;word-spacing:0px;fill:#000000;fill-opacity:1;stroke:none"
       id="text3904"
       transform="translate(0,540.36218)"
       x="-203.61987"
       y="333.41534"
       xml:space="preserve"><tspan
         style="font-size:72px;line-height:1.25;font-family:sans-serif"
         id="tspan3906"
         x="-203.61987"
         y="333.41534"
         sodipodi:role="line"> </tspan></text>
  </g>
</svg>
