<?xml version="1.0" encoding="UTF-8" standalone="no"?>
<!-- Created with Inkscape (http://www.inkscape.org/) -->

<svg
   xmlns:dc="http://purl.org/dc/elements/1.1/"
   xmlns:cc="http://creativecommons.org/ns#"
   xmlns:rdf="http://www.w3.org/1999/02/22-rdf-syntax-ns#"
   xmlns:svg="http://www.w3.org/2000/svg"
   xmlns="http://www.w3.org/2000/svg"
   xmlns:sodipodi="http://sodipodi.sourceforge.net/DTD/sodipodi-0.dtd"
   xmlns:inkscape="http://www.inkscape.org/namespaces/inkscape"
   width="512"
   height="512"
   viewBox="0 0 135.46666 135.46667"
   version="1.1"
   id="svg821"
   inkscape:version="0.92.5 (2060ec1f9f, 2020-04-08)"
   sodipodi:docname="ic_none.svg">
  <defs
     id="defs815" />
  <sodipodi:namedview
     id="base"
     pagecolor="#ffffff"
     bordercolor="#666666"
     borderopacity="1.0"
     inkscape:pageopacity="0.0"
     inkscape:pageshadow="2"
     inkscape:zoom="0.35"
     inkscape:cx="-511.42857"
     inkscape:cy="185.71429"
     inkscape:document-units="mm"
     inkscape:current-layer="layer1"
     showgrid="false"
     units="px"
     inkscape:window-width="1920"
     inkscape:window-height="1000"
     inkscape:window-x="-11"
     inkscape:window-y="-11"
     inkscape:window-maximized="1" />
  <metadata
     id="metadata818">
    <rdf:RDF>
      <cc:Work
         rdf:about="">
        <dc:format>image/svg+xml</dc:format>
        <dc:type
           rdf:resource="http://purl.org/dc/dcmitype/StillImage" />
        <dc:title></dc:title>
      </cc:Work>
    </rdf:RDF>
  </metadata>
  <g
     inkscape:label="Layer 1"
     inkscape:groupmode="layer"
     id="layer1"
     transform="translate(0,-161.53332)">
    <g
       aria-label="?"
       style="font-style:normal;font-variant:normal;font-weight:normal;font-stretch:normal;font-size:10.52678967px;line-height:0;font-family:'Segoe UI';-inkscape-font-specification:'Segoe UI';font-variant-ligatures:normal;font-variant-position:normal;font-variant-caps:normal;font-variant-numeric:normal;font-variant-alternates:normal;font-feature-settings:normal;text-indent:0;text-align:start;text-decoration:none;text-decoration-line:none;text-decoration-style:solid;text-decoration-color:#000000;letter-spacing:0px;word-spacing:0px;text-transform:none;writing-mode:lr-tb;direction:ltr;text-orientation:mixed;dominant-baseline:auto;baseline-shift:baseline;text-anchor:start;white-space:normal;shape-padding:0;opacity:1;vector-effect:none;fill:#000000;fill-opacity:1;stroke:none;stroke-width:0.65792435;stroke-linecap:butt;stroke-linejoin:miter;stroke-miterlimit:4;stroke-dasharray:none;stroke-dashoffset:0;stroke-opacity:1"
       id="text1368">
      <path
         d="m 59.159757,249.12774 q -0.555124,-1.60369 -0.986886,-4.13259 -0.431763,-2.59058 -0.431763,-5.11947 0,-3.94755 1.54201,-7.09325 1.603691,-3.20738 3.947546,-5.983 2.343856,-2.77562 5.119475,-5.30452 2.775618,-2.59057 5.119474,-5.18115 2.343856,-2.65226 3.885866,-5.48956 1.603691,-2.89898 1.603691,-6.35308 0,-2.96066 -1.171928,-5.24284 -1.110247,-2.28217 -3.084021,-3.82418 -1.973773,-1.54201 -4.56435,-2.28218 -2.590578,-0.80184 -5.489557,-0.80184 -10.42399,0 -18.072361,8.20349 v -10.85575 q 9.437103,-5.92132 19.552691,-5.92132 4.687711,0 8.820299,1.23361 4.132588,1.23361 7.216609,3.70082 3.145701,2.40554 4.934433,6.04468 1.788732,3.63915 1.788732,8.45022 0,4.56435 -1.603691,8.14182 -1.603691,3.57746 -4.070907,6.5998 -2.405537,2.96066 -5.242836,5.55124 -2.837299,2.59057 -5.304515,5.18115 -2.405536,2.5289 -4.009227,5.30452 -1.603691,2.77562 -1.603691,6.10636 0,2.8373 0.678485,5.18115 0.678484,2.28218 1.356969,3.88587 z m 5.551237,25.65905 q -2.713938,0 -4.811072,-1.97377 -2.035454,-1.97377 -2.035454,-4.81107 0,-2.89898 2.035454,-4.81108 2.035454,-2.03545 4.811072,-2.03545 2.775619,0 4.811073,2.03545 2.035453,1.9121 2.035453,4.81108 0,2.8373 -2.035453,4.81107 -2.097134,1.97377 -4.811073,1.97377 z"
         style="font-size:126.32148743px;stroke-width:0.65792435"
         id="path1382" />
    </g>
  </g>
</svg>
